<?xml version="1.0" standalone="no"?>
<!DOCTYPE svg PUBLIC "-//W3C//DTD SVG 20010904//EN"
 "http://www.w3.org/TR/2001/REC-SVG-20010904/DTD/svg10.dtd">
<svg version="1.0" xmlns="http://www.w3.org/2000/svg"
 width="1204.000000pt" height="1204.000000pt" viewBox="0 0 1204.000000 1204.000000"
 preserveAspectRatio="xMidYMid meet">
<metadata>
Created by potrace 1.11, written by Peter Selinger 2001-2013
</metadata>
<g transform="translate(0.000000,1204.000000) scale(0.100000,-0.100000)"
fill="#000000" stroke="none">
<path d="M5190 11131 l-845 -846 -1237 0 c-680 0 -1240 -4 -1244 -7 -4 -4 -7
-560 -7 -1235 0 -675 -3 -1235 -7 -1243 -5 -9 -393 -400 -864 -870 -471 -470
-855 -859 -853 -863 1 -4 390 -396 864 -870 l861 -862 -1 -1202 c-2 -1061 0
-1202 13 -1205 8 -2 552 -3 1207 -3 l1193 1 886 -885 886 -884 884 884 884
884 1183 1 c650 1 1193 2 1207 3 l25 1 0 1202 -1 1203 863 864 c475 475 863
867 861 873 -2 5 -390 396 -863 869 l-860 859 0 1232 c0 678 -3 1238 -7 1243
-4 7 -429 10 -1242 10 l-1237 0 -849 847 c-466 467 -850 848 -852 847 -2 -1
-383 -382 -848 -848z"/>
</g>
</svg>
