<?xml version="1.0" standalone="no"?>
<!DOCTYPE svg PUBLIC "-//W3C//DTD SVG 20010904//EN"
 "http://www.w3.org/TR/2001/REC-SVG-20010904/DTD/svg10.dtd">
<svg version="1.0" xmlns="http://www.w3.org/2000/svg"
 width="786.000000pt" height="786.000000pt" viewBox="0 0 786.000000 786.000000"
 preserveAspectRatio="xMidYMid meet">
<metadata>
Created by potrace 1.11, written by Peter Selinger 2001-2013
</metadata>
<g transform="translate(0.000000,786.000000) scale(0.100000,-0.100000)"
fill="#000000" stroke="none">
<path d="M5440 7283 c-54 -8 -197 -35 -225 -43 -16 -5 -41 -11 -55 -14 -14 -2
-52 -11 -85 -19 -33 -9 -72 -18 -88 -21 -15 -3 -35 -7 -45 -10 -9 -3 -28 -7
-42 -10 -33 -6 -479 -111 -605 -142 -55 -13 -111 -26 -124 -29 -38 -7 -185
-43 -506 -122 -345 -85 -523 -125 -650 -147 -87 -15 -113 -18 -274 -35 -80 -8
-336 -7 -416 3 -84 10 -216 35 -285 54 -77 21 -160 12 -160 -17 1 -58 85 -156
192 -224 96 -60 187 -88 393 -117 44 -6 91 -13 105 -15 35 -6 164 -23 230 -31
30 -3 73 -8 95 -10 51 -6 253 -6 282 0 12 3 60 8 106 11 71 6 86 4 100 -10 10
-9 17 -21 17 -26 0 -6 -46 -103 -101 -217 -214 -438 -376 -824 -534 -1272 -21
-58 -44 -124 -52 -147 -30 -82 -27 -81 -298 -87 -521 -12 -551 -18 -520 -109
7 -21 15 -40 17 -41 1 -1 22 -17 45 -34 72 -56 122 -68 314 -77 136 -7 247
-13 266 -14 25 -2 43 -32 38 -64 -6 -30 -65 -235 -177 -607 -27 -91 -60 -203
-74 -250 -14 -47 -38 -128 -54 -180 -16 -52 -38 -129 -50 -170 -12 -41 -32
-109 -45 -150 -13 -41 -44 -147 -70 -235 -26 -88 -53 -180 -61 -205 -29 -96
-86 -286 -89 -300 -3 -13 -134 -455 -211 -710 -55 -182 -78 -248 -116 -325
-70 -142 -162 -243 -279 -305 -102 -54 -113 -85 -51 -144 83 -81 197 -112 293
-81 246 81 446 257 538 475 24 57 47 110 86 195 27 59 164 399 175 435 5 14
59 171 120 350 62 179 132 384 156 455 24 72 147 438 274 815 127 377 246 732
265 790 58 176 83 200 204 193 189 -11 287 -10 314 4 29 15 35 46 14 74 -22
28 -181 105 -311 151 -67 23 -67 44 -2 226 31 86 61 166 66 177 5 11 23 61 40
110 18 50 38 106 45 125 32 86 57 152 90 245 20 55 54 147 75 205 21 58 59
162 84 231 25 69 49 137 55 150 6 13 40 107 77 209 78 219 93 249 136 285 57
48 50 46 583 151 39 7 170 34 195 40 14 3 34 6 45 8 11 2 45 8 75 15 56 12 86
18 130 26 14 3 36 7 50 10 14 3 36 7 50 10 14 3 36 7 50 10 105 21 128 25 150
29 14 2 85 16 158 30 182 36 254 45 396 52 66 4 127 7 134 8 37 6 136 -16 170
-38 20 -13 62 -49 92 -80 65 -67 102 -91 151 -94 30 -3 41 2 59 25 19 24 21
36 16 82 -14 115 -64 178 -241 303 -134 95 -335 168 -555 202 -77 12 -299 17
-360 9z"/>
</g>
</svg>
